<?xml version="1.0" standalone="no"?>
<!DOCTYPE svg PUBLIC "-//W3C//DTD SVG 20010904//EN"
 "http://www.w3.org/TR/2001/REC-SVG-20010904/DTD/svg10.dtd">
<svg version="1.0" xmlns="http://www.w3.org/2000/svg"
 width="700.000000pt" height="700.000000pt" viewBox="0 0 700.000000 700.000000"
 preserveAspectRatio="xMidYMid meet">
<metadata>
Created by potrace 1.14, written by Peter Selinger 2001-2017
</metadata>
<g transform="translate(0.000000,700.000000) scale(0.100000,-0.100000)"
fill="#000000" stroke="none">
<path d="M4058 6235 c-2 -1 -61 -5 -133 -9 -162 -8 -188 -11 -261 -30 -32 -8
-74 -18 -91 -21 -44 -7 -274 -87 -348 -120 -120 -54 -273 -173 -324 -253 -17
-26 -38 -55 -47 -64 -15 -15 -16 -23 -6 -57 7 -21 12 -41 12 -44 0 -3 -24 19
-54 49 -54 53 -55 53 -88 40 -18 -8 -58 -16 -88 -20 -80 -9 -120 -20 -176 -48
-28 -14 -91 -40 -140 -58 -104 -38 -139 -55 -162 -78 -10 -9 -40 -35 -67 -57
-86 -69 -187 -176 -261 -275 -66 -90 -154 -228 -154 -243 0 -4 -11 -24 -23
-45 -13 -20 -34 -64 -46 -97 -24 -67 -30 -81 -59 -145 -11 -25 -30 -76 -42
-115 -13 -38 -26 -74 -30 -80 -8 -10 -19 -75 -25 -145 -12 -126 -19 -168 -35
-195 -10 -17 -20 -60 -24 -100 -6 -80 -8 -90 -30 -165 -9 -30 -18 -95 -21
-145 -6 -112 -15 -220 -21 -248 -5 -26 -16 -223 -17 -287 0 -65 13 -292 18
-310 6 -20 20 -122 30 -210 3 -30 13 -82 22 -115 8 -33 17 -71 19 -85 13 -76
17 -91 93 -345 12 -38 36 -98 54 -133 18 -34 80 -158 139 -275 69 -137 135
-253 187 -326 l81 -114 -57 -53 c-32 -29 -66 -56 -75 -59 -9 -3 -27 -28 -39
-55 -19 -42 -26 -49 -44 -44 -23 6 -40 -4 -173 -93 -42 -29 -101 -69 -131 -89
-56 -37 -161 -131 -161 -144 0 -4 68 -8 150 -8 94 0 150 4 150 10 0 7 4 7 13
0 7 -6 94 -10 212 -11 l201 0 28 77 c15 42 39 101 52 130 13 29 24 56 24 61 0
12 30 36 31 25 5 -93 10 -162 16 -219 l8 -69 36 -4 c36 -3 37 -3 33 30 -14
150 -16 198 -6 198 6 0 14 -10 17 -22 4 -13 24 -50 44 -83 20 -33 43 -73 52
-90 12 -23 24 -30 52 -33 21 -2 37 0 37 5 0 4 -21 49 -46 98 -26 50 -48 102
-49 117 -1 15 -12 39 -24 54 -11 15 -21 34 -21 43 1 14 2 14 13 1 19 -24 67
-51 77 -45 16 10 12 24 -15 59 -32 42 -31 48 3 40 33 -8 80 -40 105 -71 50
-62 72 -64 47 -3 -9 21 -9 34 0 49 15 30 37 26 86 -15 43 -35 64 -37 64 -8 0
8 -20 36 -44 62 -24 26 -47 59 -52 73 -5 15 -25 46 -44 69 -19 23 -35 49 -36
58 -2 9 -6 27 -9 41 -6 22 -5 23 10 11 10 -8 30 -13 45 -12 21 2 39 -8 72 -41
37 -37 81 -64 268 -164 14 -7 28 -13 32 -13 4 0 35 -18 69 -40 34 -22 69 -40
77 -40 9 0 52 -11 96 -25 45 -13 113 -31 151 -40 39 -9 79 -18 90 -21 11 -3
48 -5 83 -5 48 1 61 -2 56 -12 -9 -14 -140 -163 -171 -193 -26 -26 -21 -34 26
-34 26 0 44 8 67 31 52 51 141 59 115 11 -17 -31 -13 -42 12 -42 17 0 26 9 36
35 11 32 16 35 52 36 21 1 44 3 49 4 6 1 15 3 20 4 12 1 13 28 2 35 -10 6 -48
13 -115 22 -30 4 -51 13 -55 22 -8 22 52 72 87 72 36 0 112 -61 152 -121 28
-43 28 -43 9 -64 -34 -36 -25 -43 60 -43 44 0 80 2 80 6 -1 4 -14 30 -30 57
-16 28 -34 60 -39 72 -6 12 -18 31 -28 41 -69 72 -68 71 -47 87 32 25 101 55
128 55 33 0 134 38 171 65 17 12 53 34 80 48 28 14 74 46 104 70 30 25 74 56
99 69 26 12 71 45 102 72 30 27 67 54 81 60 36 16 85 54 135 105 24 25 46 42
50 38 8 -8 -78 -159 -123 -215 -24 -29 -30 -42 -19 -42 32 0 25 -21 -24 -71
-39 -40 -48 -54 -39 -65 18 -22 93 -9 165 30 77 42 78 42 64 17 -6 -13 -7 -22
0 -26 12 -8 49 16 55 36 3 9 14 24 25 34 33 30 24 -3 -19 -75 -41 -67 -41 -97
0 -72 12 8 23 11 26 9 5 -6 -34 -156 -46 -176 -6 -10 -15 -7 -35 14 -23 23
-33 26 -63 22 -30 -5 -73 -38 -73 -56 1 -31 85 -59 121 -40 26 13 25 -1 -6
-90 -20 -61 -22 -73 -10 -78 31 -11 62 6 69 38 3 18 24 69 46 115 22 46 40 92
40 103 0 37 19 70 49 86 17 8 32 15 34 15 7 0 -4 -294 -12 -326 l-9 -31 58 -2
c72 -2 105 22 144 104 68 145 91 284 55 342 -20 32 -18 76 3 89 20 12 30 -15
33 -91 2 -43 9 -83 15 -89 19 -19 10 -53 -49 -199 -41 -102 -55 -147 -47 -150
7 -3 93 -5 190 -5 l178 0 -7 25 c-7 29 14 93 31 93 7 0 36 -26 66 -59 l53 -59
228 0 c163 0 227 3 228 12 1 6 2 18 3 26 1 8 -2 26 -7 39 -13 39 -3 52 31 40
35 -12 54 -48 45 -90 -6 -30 -5 -30 33 -27 l38 3 1 83 0 83 -55 34 c-78 49
-222 118 -310 149 -41 15 -95 36 -120 48 -174 81 -258 110 -334 112 -67 3 -96
15 -133 55 -22 23 -23 32 -18 90 3 37 13 75 24 90 24 35 43 89 90 266 41 151
75 303 85 383 3 23 9 50 14 60 5 9 12 35 15 57 3 22 8 49 10 60 3 11 13 61 22
110 10 50 37 151 60 225 24 74 45 155 48 180 3 25 12 74 20 110 31 133 38 215
37 445 -1 392 -10 563 -35 673 -9 37 -18 89 -20 117 -3 27 -9 74 -15 105 -6
30 -13 69 -16 85 -17 95 -137 446 -165 486 -16 22 -38 89 -54 160 -7 34 -48
168 -76 252 -32 97 -49 128 -90 170 -15 15 -30 44 -34 64 -16 86 -75 164 -215
283 -29 25 -62 52 -74 60 -12 8 -27 20 -34 27 -7 7 -17 13 -22 13 -4 0 -44 26
-87 58 -43 32 -94 67 -113 78 -19 10 -37 21 -40 24 -3 3 -25 21 -50 40 -139
109 -288 166 -457 173 -46 2 -84 3 -85 2z m-410 -914 c-18 -25 -40 -41 -55
-41 -21 0 -15 22 14 52 20 21 29 25 40 16 10 -8 11 -14 1 -27z m120 30 c10 -1
10 -6 2 -21 -14 -26 -60 -27 -60 -2 0 24 7 31 28 27 9 -2 23 -4 30 -4z m-227
-18 c-19 -33 -38 -53 -50 -53 -18 0 -13 19 14 45 29 30 51 34 36 8z m294 -14
c-4 -5 -13 -9 -22 -9 -13 0 -13 3 -3 15 13 15 35 11 25 -6z m-427 -11 c-2 -6
-10 -14 -16 -16 -7 -2 -10 2 -6 12 7 18 28 22 22 4z m-609 -135 c1 -1 0 -7 -4
-13 -5 -8 -12 -7 -23 3 -10 8 -27 18 -39 21 -13 4 -23 11 -23 16 0 18 26 16
55 -4 17 -12 32 -22 34 -23z m1226 1 c61 -9 139 -17 175 -18 55 -1 72 -6 110
-33 25 -17 54 -41 65 -53 11 -12 45 -39 75 -60 30 -21 77 -60 103 -86 54 -55
168 -243 211 -349 16 -38 49 -110 72 -160 53 -110 67 -174 90 -415 3 -30 12
-77 19 -105 16 -55 19 -71 35 -195 6 -46 13 -87 15 -90 9 -15 20 -149 20 -245
-1 -130 -9 -212 -29 -292 -8 -32 -17 -97 -20 -144 -7 -105 -23 -182 -47 -229
-12 -24 -18 -56 -17 -105 0 -80 -9 -184 -22 -235 -5 -19 -12 -49 -14 -66 -6
-30 -18 -65 -56 -149 -9 -22 -27 -67 -39 -100 -24 -65 -91 -185 -103 -185 -4
0 -14 -13 -22 -29 -20 -37 -114 -131 -143 -142 -45 -17 -16 -68 39 -69 15 0
33 -7 42 -15 14 -14 12 -19 -22 -51 -54 -50 -159 -110 -219 -124 -65 -15 -71
-37 -12 -46 l42 -7 -29 -15 c-26 -13 -49 -30 -155 -112 -17 -14 -46 -32 -63
-41 -17 -8 -42 -22 -56 -31 -14 -9 -58 -29 -99 -43 -41 -15 -101 -39 -135 -55
-85 -38 -89 -39 -169 -46 -40 -3 -74 -7 -77 -9 -3 -2 -28 1 -55 6 -28 6 -68
12 -90 15 -22 3 -53 9 -70 14 -30 9 -115 25 -170 34 -40 6 -163 51 -252 92
-67 32 -93 55 -90 79 1 6 -26 13 -60 17 -40 4 -80 17 -110 34 -57 33 -215 172
-208 184 2 4 27 10 55 12 59 6 58 6 65 44 7 37 -20 68 -140 159 -94 70 -120
95 -171 161 -49 64 -74 110 -74 138 0 15 -11 48 -24 74 -30 60 -118 295 -145
387 -21 72 -49 222 -57 310 -6 57 -43 233 -54 255 -4 8 -10 35 -13 60 -3 25
-10 62 -15 83 -15 58 -6 269 12 306 9 16 16 51 16 76 0 25 9 65 19 88 11 23
21 56 24 74 3 18 10 47 16 65 5 18 12 51 14 73 3 22 9 58 15 80 6 22 13 57 16
79 4 21 9 43 12 48 4 6 6 32 5 59 -1 49 58 239 100 320 10 21 19 44 19 52 0 7
18 31 41 52 23 22 54 63 70 90 16 28 37 59 47 70 10 11 31 50 47 87 16 37 50
91 76 120 26 29 58 66 71 81 14 17 35 30 53 32 17 2 65 12 107 23 161 42 240
40 346 -10 50 -24 69 -19 83 21 6 17 19 33 30 36 10 4 19 10 19 15 0 9 41 16
140 24 30 3 80 9 110 15 60 12 102 16 255 26 55 4 101 8 102 9 6 6 153 -6 248
-20z m-1621 -3730 c3 -8 2 -12 -4 -9 -6 3 -10 10 -10 16 0 14 7 11 14 -7z m46
-60 c0 -3 -7 -1 -15 6 -8 7 -15 17 -15 22 0 5 7 3 15 -6 8 -8 15 -18 15 -22z
m2605 -14 c-3 -11 -8 -32 -11 -47 -3 -16 -14 -39 -24 -53 -21 -26 -30 -44 -50
-97 -19 -50 -31 -39 -16 12 8 25 12 45 10 45 -6 0 36 92 58 127 22 36 43 44
33 13z m-3034 -197 c3 -38 -14 -84 -66 -185 -14 -27 -25 -54 -25 -62 0 -8 -5
-18 -10 -21 -7 -4 -9 2 -6 17 2 13 7 39 11 59 5 25 2 46 -9 67 -26 51 -21 80
17 95 17 8 38 21 46 30 18 22 41 22 42 0z m3295 -30 c-11 -11 -19 6 -11 24 8
17 8 17 12 0 3 -10 2 -21 -1 -24z m289 -42 c62 -29 76 -43 55 -56 -5 -3 -10
-31 -10 -61 0 -30 -4 -54 -10 -54 -17 0 -102 108 -139 178 -11 20 -10 22 14
22 14 0 55 -13 90 -29z m-497 -38 c4 -26 -23 -93 -37 -93 -12 0 -12 65 1 98
10 28 32 24 36 -5z m679 -38 c38 -15 71 -29 75 -33 7 -7 -25 -139 -37 -150 -8
-9 -32 29 -46 73 -7 22 -25 59 -41 82 -42 63 -43 62 49 28z m-4054 7 c7 -10
-49 -121 -84 -164 -16 -20 -29 -40 -29 -45 0 -4 -10 -19 -21 -33 -18 -23 -20
-23 -17 -4 2 11 -9 35 -25 53 -15 18 -27 37 -27 42 0 5 25 28 57 52 31 23 72
57 92 74 38 34 47 38 54 25z m3736 -51 c11 -26 9 -36 -23 -99 -41 -82 -63
-103 -52 -51 3 19 12 63 19 99 18 97 32 110 56 51z m551 -68 c0 -10 -5 -25
-10 -33 -7 -12 -11 -10 -18 10 -11 29 -7 40 14 40 8 0 14 -8 14 -17z"/>
<path d="M4245 4326 c-66 -23 -135 -49 -152 -58 -18 -9 -47 -19 -65 -23 -67
-14 -214 -68 -249 -91 -19 -13 -44 -24 -56 -24 -49 0 -55 -67 -8 -88 61 -28
97 -25 172 12 40 20 76 36 81 36 5 0 30 9 55 20 25 11 76 22 114 25 37 2 91
11 118 19 28 9 90 16 140 17 50 0 99 4 110 8 11 4 40 3 65 -4 27 -7 55 -9 68
-4 12 5 33 4 48 -1 36 -14 44 -13 44 9 0 26 -97 106 -179 147 -105 53 -156 53
-306 0z"/>
<path d="M2374 4216 c-51 -32 -92 -73 -133 -136 -13 -19 -35 -45 -49 -57 -26
-22 -25 -49 2 -59 7 -3 58 14 112 37 91 40 107 43 203 47 100 4 166 -6 199
-31 7 -6 88 -11 180 -13 92 -1 188 -5 214 -9 81 -11 146 40 139 112 -1 14 -61
47 -101 56 -14 3 -70 7 -125 8 -55 1 -113 6 -130 11 -16 5 -70 11 -120 14 -49
3 -113 10 -141 15 -28 5 -74 12 -103 15 -29 3 -62 9 -75 13 -17 7 -33 2 -72
-23z"/>
<path d="M3954 3825 c-19 -20 -43 -54 -53 -74 -11 -20 -28 -45 -40 -55 -12
-11 -21 -25 -21 -33 0 -27 37 -12 88 36 48 45 107 80 117 69 3 -3 0 -28 -6
-56 -10 -43 -10 -57 5 -96 10 -26 33 -59 53 -75 33 -27 40 -29 112 -26 90 3
115 13 160 68 33 42 33 42 26 119 -4 49 -3 78 3 78 21 0 131 -63 168 -96 45
-39 71 -41 65 -4 -5 38 -36 75 -97 115 -63 42 -45 39 -354 49 -74 3 -147 8
-163 12 -23 5 -33 1 -63 -31z"/>
<path d="M2640 3789 c-52 -17 -143 -46 -202 -65 -59 -18 -116 -34 -127 -34
-11 0 -34 -12 -51 -26 -29 -25 -31 -31 -28 -82 2 -45 6 -56 22 -58 30 -4 46 7
67 47 21 42 63 68 158 99 63 20 76 15 61 -24 -23 -60 -1 -124 50 -151 16 -8
31 -15 32 -15 15 4 86 -15 82 -21 -6 -11 -85 -11 -142 0 -37 7 -45 6 -57 -11
-18 -27 -10 -43 32 -69 33 -21 40 -21 97 -10 78 15 104 20 141 27 34 6 72 28
98 57 37 43 9 70 -47 43 -19 -9 -39 -16 -45 -16 -21 0 -11 20 19 35 44 23 64
68 56 128 -4 28 -14 59 -22 71 -8 11 -14 24 -14 28 0 12 53 -2 115 -31 63 -30
85 -30 85 -2 0 31 -59 73 -120 86 -8 2 -35 8 -60 14 -67 16 -96 13 -200 -20z"/>
<path d="M3230 3720 c-30 -29 -46 -59 -54 -103 -2 -12 -9 -35 -15 -50 -23 -60
-15 -89 44 -152 30 -33 55 -63 55 -67 0 -5 14 -8 31 -8 26 0 29 3 24 21 -12
36 -12 53 -3 84 17 60 11 184 -12 246 -13 33 -26 59 -31 59 -5 0 -22 -13 -39
-30z m35 -78 c0 -18 -20 -15 -23 4 -3 10 1 15 10 12 7 -3 13 -10 13 -16z"/>
<path d="M4003 3499 c-16 -16 4 -57 36 -74 15 -7 44 -11 66 -10 22 1 63 -2 91
-7 43 -9 56 -7 78 7 14 10 26 23 26 31 0 20 -79 33 -115 19 -33 -13 -89 -3
-115 20 -23 20 -55 26 -67 14z"/>
<path d="M3961 3411 c-18 -12 -7 -54 21 -81 29 -26 74 -26 88 1 25 46 -61 110
-109 80z"/>
<path d="M2855 3368 c-29 -16 -56 -50 -52 -62 5 -13 66 -10 103 5 20 7 25 15
22 37 -2 20 -9 28 -28 29 -14 2 -34 -2 -45 -9z"/>
<path d="M3144 2845 c-13 -9 -17 -24 -16 -57 2 -24 -4 -63 -13 -87 -14 -42
-14 -43 12 -78 15 -20 43 -43 63 -51 19 -8 37 -17 40 -21 3 -3 29 -19 59 -35
47 -25 66 -29 135 -30 88 0 102 5 181 65 41 31 78 51 115 64 3 1 14 5 25 10
11 4 34 13 51 20 17 7 49 24 72 39 46 29 54 58 29 106 -17 34 -61 35 -63 2 -2
-38 -33 -61 -169 -127 -142 -69 -179 -82 -198 -68 -6 5 -37 15 -67 23 -30 7
-62 17 -70 22 -8 5 -42 17 -75 27 -67 19 -75 33 -51 83 17 34 20 66 8 86 -12
18 -48 22 -68 7z"/>
<path d="M3548 2235 c-2 -2 -42 -5 -90 -8 -48 -3 -91 -8 -95 -10 -9 -6 -224
-18 -363 -21 -42 -1 -81 -6 -88 -10 -43 -26 34 -110 109 -119 19 -2 55 2 82 9
26 7 47 10 47 8 0 -2 11 1 24 5 13 5 54 12 92 16 38 4 87 11 109 17 59 16 282
17 330 2 52 -16 135 -20 210 -9 33 5 62 9 65 10 22 3 127 51 137 62 31 39 -18
49 -112 25 -40 -11 -122 -9 -205 4 -25 4 -72 6 -105 5 -34 -1 -79 2 -102 7
-23 5 -43 8 -45 7z"/>
<path d="M3270 1990 c-19 -11 -4 -57 20 -63 23 -6 184 -1 253 8 80 10 123 34
95 52 -17 10 -352 13 -368 3z"/>
<path d="M2819 1437 c-14 -8 -25 -23 -27 -39 -3 -21 2 -28 30 -37 17 -6 41
-20 53 -30 21 -19 68 -37 120 -45 135 -21 491 -27 579 -8 34 6 90 15 124 18
85 7 88 8 195 44 89 31 142 64 131 82 -7 10 -77 2 -149 -18 -55 -15 -59 -16
-255 -40 -128 -15 -408 -16 -480 -1 -14 3 -44 8 -68 11 -52 7 -123 25 -137 35
-5 4 -28 15 -51 24 -33 12 -45 13 -65 4z"/>
<path d="M3560 1218 c-25 -3 -76 -7 -115 -8 -74 -1 -105 -14 -105 -46 1 -59
59 -61 217 -9 23 8 52 16 65 19 56 11 70 24 44 45 -14 11 -30 11 -106 -1z"/>
</g>
</svg>
